<svg xmlns="http://www.w3.org/2000/svg" viewBox="0 0 160 200" width="100%" height="100%" preserveAspectRatio="none" shape-rendering="crispEdges">
  <defs>
    <linearGradient id="piCrossbarGrad" x1="0%" y1="0%" x2="100%" y2="0%">
      <stop offset="0%" stop-color="#ff3366"/>
      <stop offset="25%" stop-color="#f43f5e"/>
      <stop offset="55%" stop-color="#9333ea"/>
      <stop offset="85%" stop-color="#3b82f6"/>
      <stop offset="100%" stop-color="#00f0ff"/>
    </linearGradient>
    <linearGradient id="piLeftLegGrad" x1="0%" y1="0%" x2="0%" y2="100%">
      <stop offset="0%" stop-color="#f43f5e"/>
      <stop offset="45%" stop-color="#c026d3"/>
      <stop offset="85%" stop-color="#7e22ce"/>
      <stop offset="100%" stop-color="#4c1d95"/>
    </linearGradient>
    <linearGradient id="piRightLegGrad" x1="0%" y1="0%" x2="50%" y2="100%">
      <stop offset="0%" stop-color="#9333ea"/>
      <stop offset="35%" stop-color="#4f46e5"/>
      <stop offset="70%" stop-color="#0284c7"/>
      <stop offset="100%" stop-color="#00f0ff"/>
    </linearGradient>
    <pattern id="piHalftone" x="0" y="0" width="3" height="3" patternUnits="userSpaceOnUse">
      <rect width="3" height="3" fill="#2e1065"/>
      <rect x="0" y="0" width="1.2" height="1.2" fill="#c084fc"/>
      <rect x="1.5" y="1.5" width="1.2" height="1.2" fill="#e879f9"/>
    </pattern>
  </defs>

  <style>
    @keyframes vortexRing1 { 0% { transform: rotate(0deg); } 100% { transform: rotate(360deg); } }
    @keyframes vortexRing2 { 0% { transform: rotate(360deg); } 100% { transform: rotate(0deg); } }
    @keyframes vortexRing3 { 0% { transform: rotate(0deg); } 100% { transform: rotate(360deg); } }
    @keyframes levitateCenter { 0%, 100% { transform: translateY(0px); } 50% { transform: translateY(-4px); } }
    .ring-1 { animation: vortexRing1 8s steps(8) infinite; transform-origin: 80px 100px; }
    .ring-2 { animation: vortexRing2 12s steps(10) infinite; transform-origin: 80px 100px; }
    .ring-3 { animation: vortexRing3 18s steps(12) infinite; transform-origin: 80px 100px; }
    .pip-commander { animation: levitateCenter 1.8s steps(2) infinite; transform-origin: 80px 100px; }
  </style>

  <rect width="160" height="200" fill="#000000"/>

  <g stroke="#003b00" stroke-width="0.75" opacity="0.4">
    <line x1="0" y1="15" x2="160" y2="15"/><line x1="0" y1="45" x2="160" y2="45"/>
    <line x1="0" y1="155" x2="160" y2="155"/><line x1="0" y1="185" x2="160" y2="185"/>
    <line x1="25" y1="0" x2="25" y2="200"/><line x1="135" y1="0" x2="135" y2="200"/>
  </g>

  <g stroke="#00ff41" stroke-width="1.5" fill="none">
    <path d="M2,12 L2,2 L12,2"/><path d="M158,12 L158,2 L148,2"/>
    <path d="M2,188 L2,198 L12,198"/><path d="M158,188 L158,198 L148,198"/>
  </g>

  <!-- Top-Right Combo HUD Badge -->
  <g transform="translate(94, 6)">
    <rect width="62" height="16" fill="#000000" stroke="#00ff41" stroke-width="1.5"/>
    <text x="31" y="11.5" font-family="'Fira Code', monospace" font-size="7.5" font-weight="900" fill="#00ff41" text-anchor="middle">15x TRIPLE</text>
  </g>

  <!-- Ground Levitation Floor -->
  <g opacity="0.6" stroke="#c084fc" stroke-width="1">
    <line x1="20" y1="184" x2="140" y2="184" stroke-dasharray="4,2"/>
    <line x1="35" y1="188" x2="125" y2="188"/>
  </g>
  <ellipse cx="80" cy="180" rx="36" ry="5" fill="#f43f5e" opacity="0.25"/>

  <!-- Ring 3: Outer 7 Nodes -->
  <g class="ring-3">
    <circle cx="80" cy="100" r="68" fill="none" stroke="#15803d" stroke-width="1" stroke-dasharray="3,5" opacity="0.6"/>
    <g transform="translate(142, 94)"><rect width="11" height="11" fill="#00ff41"/><rect x="1.5" y="1.5" width="8" height="8" fill="#000"/><rect x="3.5" y="3.5" width="4" height="4" fill="#00f0ff"/></g>
    <g transform="translate(119, 149)"><rect width="11" height="11" fill="#00ff41"/><rect x="1.5" y="1.5" width="8" height="8" fill="#000"/><rect x="3.5" y="3.5" width="4" height="4" fill="#fb923c"/></g>
    <g transform="translate(62, 163)"><rect width="11" height="11" fill="#00ff41"/><rect x="1.5" y="1.5" width="8" height="8" fill="#000"/><rect x="3.5" y="3.5" width="4" height="4" fill="#f43f5e"/></g>
    <g transform="translate(16, 126)"><rect width="11" height="11" fill="#00ff41"/><rect x="1.5" y="1.5" width="8" height="8" fill="#000"/><rect x="3.5" y="3.5" width="4" height="4" fill="#c084fc"/></g>
    <g transform="translate(16, 62)"><rect width="11" height="11" fill="#00ff41"/><rect x="1.5" y="1.5" width="8" height="8" fill="#000"/><rect x="3.5" y="3.5" width="4" height="4" fill="#fbbf24"/></g>
    <g transform="translate(62, 25)"><rect width="11" height="11" fill="#00ff41"/><rect x="1.5" y="1.5" width="8" height="8" fill="#000"/><rect x="3.5" y="3.5" width="4" height="4" fill="#00ff41"/></g>
    <g transform="translate(119, 39)"><rect width="11" height="11" fill="#00ff41"/><rect x="1.5" y="1.5" width="8" height="8" fill="#000"/><rect x="3.5" y="3.5" width="4" height="4" fill="#00f0ff"/></g>
  </g>

  <!-- Ring 2: Mid 5 Nodes -->
  <g class="ring-2">
    <circle cx="80" cy="100" r="46" fill="none" stroke="#166534" stroke-width="1" stroke-dasharray="2,3" opacity="0.7"/>
    <g transform="translate(120, 95)"><rect width="10" height="10" fill="#00ff41"/><rect x="1.5" y="1.5" width="7" height="7" fill="#000"/><rect x="3" y="3" width="4" height="4" fill="#00f0ff"/></g>
    <g transform="translate(103, 133)"><rect width="10" height="10" fill="#00ff41"/><rect x="1.5" y="1.5" width="7" height="7" fill="#000"/><rect x="3" y="3" width="4" height="4" fill="#fb923c"/></g>
    <g transform="translate(48, 133)"><rect width="10" height="10" fill="#00ff41"/><rect x="1.5" y="1.5" width="7" height="7" fill="#000"/><rect x="3" y="3" width="4" height="4" fill="#f43f5e"/></g>
    <g transform="translate(31, 95)"><rect width="10" height="10" fill="#00ff41"/><rect x="1.5" y="1.5" width="7" height="7" fill="#000"/><rect x="3" y="3" width="4" height="4" fill="#c084fc"/></g>
    <g transform="translate(75, 50)"><rect width="10" height="10" fill="#00ff41"/><rect x="1.5" y="1.5" width="7" height="7" fill="#000"/><rect x="3" y="3" width="4" height="4" fill="#fbbf24"/></g>
  </g>

  <!-- Ring 1: Inner 3 Nodes -->
  <g class="ring-1">
    <circle cx="80" cy="100" r="28" fill="none" stroke="#00ff41" stroke-width="1" stroke-dasharray="2,2" opacity="0.9"/>
    <g transform="translate(103, 96)"><rect width="8" height="8" fill="#00ff41"/><rect x="1" y="1" width="6" height="6" fill="#000"/><rect x="2" y="2" width="4" height="4" fill="#00f0ff"/></g>
    <g transform="translate(68, 120)"><rect width="8" height="8" fill="#00ff41"/><rect x="1" y="1" width="6" height="6" fill="#000"/><rect x="2" y="2" width="4" height="4" fill="#fb923c"/></g>
    <g transform="translate(68, 72)"><rect width="8" height="8" fill="#00ff41"/><rect x="1" y="1" width="6" height="6" fill="#000"/><rect x="2" y="2" width="4" height="4" fill="#fbbf24"/></g>
  </g>



  <!-- Pure Dot-Matrix LED Pin Mascot Body (No Eyeballs) -->
  <g class="pip-commander">
    <circle cx="48" cy="70" r="1.65" fill="#ff3366"/> <circle cx="48" cy="74" r="1.65" fill="#ff3366"/> <circle cx="52" cy="70" r="1.65" fill="#ff3366"/> <circle cx="52" cy="74" r="1.65" fill="#ff3366"/> <circle cx="52" cy="78" r="1.65" fill="#ff3366"/> <circle cx="56" cy="70" r="1.65" fill="#ff3366"/> <circle cx="56" cy="74" r="1.65" fill="#ff3366"/> <circle cx="56" cy="78" r="1.65" fill="#ff3366"/> <circle cx="60" cy="70" r="1.65" fill="#ff3366"/> <circle cx="60" cy="74" r="1.65" fill="#ff3366"/> <circle cx="60" cy="78" r="1.65" fill="#ff3366"/> <circle cx="64" cy="70" r="1.65" fill="#f43f5e"/> <circle cx="64" cy="74" r="1.65" fill="#f43f5e"/> <circle cx="64" cy="78" r="1.65" fill="#f43f5e"/> <circle cx="68" cy="70" r="1.65" fill="#f43f5e"/> <circle cx="68" cy="74" r="1.65" fill="#f43f5e"/> <circle cx="68" cy="78" r="1.65" fill="#f43f5e"/> <circle cx="72" cy="70" r="1.65" fill="#f43f5e"/> <circle cx="72" cy="74" r="1.65" fill="#f43f5e"/> <circle cx="72" cy="78" r="1.65" fill="#f43f5e"/> <circle cx="76" cy="70" r="1.65" fill="#a855f7"/> <circle cx="76" cy="74" r="1.65" fill="#a855f7"/> <circle cx="76" cy="78" r="1.65" fill="#a855f7"/> <circle cx="80" cy="70" r="1.65" fill="#a855f7"/> <circle cx="80" cy="74" r="1.65" fill="#a855f7"/> <circle cx="80" cy="78" r="1.65" fill="#a855f7"/> <circle cx="84" cy="70" r="1.65" fill="#a855f7"/> <circle cx="84" cy="74" r="1.65" fill="#a855f7"/> <circle cx="84" cy="78" r="1.65" fill="#a855f7"/> <circle cx="88" cy="70" r="1.65" fill="#6366f1"/> <circle cx="88" cy="74" r="1.65" fill="#6366f1"/> <circle cx="88" cy="78" r="1.65" fill="#6366f1"/> <circle cx="92" cy="70" r="1.65" fill="#6366f1"/> <circle cx="92" cy="74" r="1.65" fill="#6366f1"/> <circle cx="92" cy="78" r="1.65" fill="#6366f1"/> <circle cx="96" cy="70" r="1.65" fill="#6366f1"/> <circle cx="96" cy="74" r="1.65" fill="#6366f1"/> <circle cx="96" cy="78" r="1.65" fill="#6366f1"/> <circle cx="100" cy="70" r="1.65" fill="#0ea5e9"/> <circle cx="100" cy="74" r="1.65" fill="#0ea5e9"/> <circle cx="100" cy="78" r="1.65" fill="#0ea5e9"/> <circle cx="104" cy="70" r="1.65" fill="#0ea5e9"/> <circle cx="104" cy="74" r="1.65" fill="#0ea5e9"/> <circle cx="104" cy="78" r="1.65" fill="#0ea5e9"/> <circle cx="108" cy="70" r="1.65" fill="#00f0ff"/> <circle cx="108" cy="74" r="1.65" fill="#00f0ff"/> <circle cx="108" cy="78" r="1.65" fill="#00f0ff"/> <circle cx="60" cy="82" r="1.65" fill="#f43f5e"/> <circle cx="64" cy="82" r="1.65" fill="#f43f5e"/> <circle cx="68" cy="82" r="1.65" fill="#f43f5e"/> <circle cx="60" cy="86" r="1.65" fill="#f43f5e"/> <circle cx="64" cy="86" r="1.65" fill="#f43f5e"/> <circle cx="68" cy="86" r="1.65" fill="#f43f5e"/> <circle cx="60" cy="90" r="1.65" fill="#f43f5e"/> <circle cx="64" cy="90" r="1.65" fill="#f43f5e"/> <circle cx="68" cy="90" r="1.65" fill="#f43f5e"/> <circle cx="60" cy="94" r="1.65" fill="#c026d3"/> <circle cx="64" cy="94" r="1.65" fill="#c026d3"/> <circle cx="68" cy="94" r="1.65" fill="#c026d3"/> <circle cx="60" cy="98" r="1.65" fill="#c026d3"/> <circle cx="64" cy="98" r="1.65" fill="#c026d3"/> <circle cx="68" cy="98" r="1.65" fill="#c026d3"/> <circle cx="60" cy="102" r="1.65" fill="#9333ea"/> <circle cx="64" cy="102" r="1.65" fill="#9333ea"/> <circle cx="68" cy="102" r="1.65" fill="#9333ea"/> <circle cx="60" cy="106" r="1.65" fill="#9333ea"/> <circle cx="64" cy="106" r="1.65" fill="#9333ea"/> <circle cx="68" cy="106" r="1.65" fill="#9333ea"/> <circle cx="60" cy="110" r="1.4" fill="#a855f7" opacity="0.8"/> <circle cx="68" cy="110" r="1.4" fill="#a855f7" opacity="0.8"/> <circle cx="60" cy="114" r="1.2" fill="#7e22ce" opacity="0.6"/> <circle cx="68" cy="114" r="1.2" fill="#7e22ce" opacity="0.6"/> <circle cx="64" cy="118" r="1.1" fill="#581c87" opacity="0.5"/> <circle cx="88" cy="82" r="1.65" fill="#8b5cf6"/> <circle cx="92" cy="82" r="1.65" fill="#8b5cf6"/> <circle cx="96" cy="82" r="1.65" fill="#8b5cf6"/> <circle cx="88" cy="86" r="1.65" fill="#8b5cf6"/> <circle cx="92" cy="86" r="1.65" fill="#8b5cf6"/> <circle cx="96" cy="86" r="1.65" fill="#8b5cf6"/> <circle cx="88" cy="90" r="1.65" fill="#8b5cf6"/> <circle cx="92" cy="90" r="1.65" fill="#8b5cf6"/> <circle cx="96" cy="90" r="1.65" fill="#8b5cf6"/> <circle cx="88" cy="94" r="1.65" fill="#3b82f6"/> <circle cx="92" cy="94" r="1.65" fill="#3b82f6"/> <circle cx="96" cy="94" r="1.65" fill="#3b82f6"/> <circle cx="88" cy="98" r="1.65" fill="#3b82f6"/> <circle cx="92" cy="98" r="1.65" fill="#3b82f6"/> <circle cx="96" cy="98" r="1.65" fill="#3b82f6"/> <circle cx="88" cy="102" r="1.65" fill="#06b6d4"/> <circle cx="92" cy="102" r="1.65" fill="#06b6d4"/> <circle cx="96" cy="102" r="1.65" fill="#06b6d4"/> <circle cx="88" cy="106" r="1.65" fill="#06b6d4"/> <circle cx="92" cy="106" r="1.65" fill="#06b6d4"/> <circle cx="96" cy="106" r="1.65" fill="#06b6d4"/> <circle cx="88" cy="110" r="1.65" fill="#00f0ff"/> <circle cx="92" cy="110" r="1.65" fill="#00f0ff"/> <circle cx="96" cy="110" r="1.65" fill="#00f0ff"/> <circle cx="100" cy="110" r="1.65" fill="#00f0ff"/> <circle cx="92" cy="114" r="1.65" fill="#00f0ff"/> <circle cx="96" cy="114" r="1.65" fill="#00f0ff"/> <circle cx="100" cy="114" r="1.65" fill="#00f0ff"/> <circle cx="104" cy="114" r="1.65" fill="#00f0ff"/> <circle cx="96" cy="118" r="1.65" fill="#00f0ff"/> <circle cx="100" cy="118" r="1.65" fill="#00f0ff"/> <circle cx="104" cy="118" r="1.65" fill="#00f0ff"/>
  </g>
</svg>
