<svg xmlns="http://www.w3.org/2000/svg" viewBox="0 0 160 200" width="100%" height="100%" preserveAspectRatio="none" shape-rendering="crispEdges">
  <defs>
    <pattern id="piHalftone" x="0" y="0" width="3" height="3" patternUnits="userSpaceOnUse">
      <rect width="3" height="3" fill="#180b2c"/>
      <rect x="0" y="0" width="1" height="1" fill="#c084fc"/>
      <rect x="2" y="2" width="1" height="1" fill="#c084fc"/>
    </pattern>
  </defs>

  <style>
    @keyframes vortexRing1 { 0% { transform: rotate(0deg); } 100% { transform: rotate(360deg); } }
    @keyframes vortexRing2 { 0% { transform: rotate(360deg); } 100% { transform: rotate(0deg); } }
    @keyframes levitateCenter { 0%, 100% { transform: translateY(0px); } 50% { transform: translateY(-4px); } }
    .ring-1 { animation: vortexRing1 8s steps(8) infinite; transform-origin: 80px 100px; }
    .ring-2 { animation: vortexRing2 14s steps(12) infinite; transform-origin: 80px 100px; }
    .pip-commander { animation: levitateCenter 1.8s steps(2) infinite; transform-origin: 80px 100px; }
  </style>

  <rect width="160" height="200" fill="#000000"/>

  <g stroke="#003b00" stroke-width="0.75" opacity="0.4">
    <line x1="0" y1="15" x2="160" y2="15"/><line x1="0" y1="45" x2="160" y2="45"/>
    <line x1="0" y1="155" x2="160" y2="155"/><line x1="0" y1="185" x2="160" y2="185"/>
    <line x1="25" y1="0" x2="25" y2="200"/><line x1="135" y1="0" x2="135" y2="200"/>
  </g>

  <g stroke="#00ff41" stroke-width="1.5" fill="none">
    <path d="M2,12 L2,2 L12,2"/><path d="M158,12 L158,2 L148,2"/>
    <path d="M2,188 L2,198 L12,198"/><path d="M158,188 L158,198 L148,198"/>
  </g>

  <!-- Top-Right Combo HUD Badge -->
  <g transform="translate(94, 6)">
    <rect width="62" height="16" fill="#000000" stroke="#00ff41" stroke-width="1.5"/>
    <text x="31" y="11.5" font-family="'Fira Code', monospace" font-size="7.5" font-weight="900" fill="#00ff41" text-anchor="middle">10x DUAL</text>
  </g>

  <!-- Ground Levitation Floor -->
  <g opacity="0.6" stroke="#c084fc" stroke-width="1">
    <line x1="20" y1="184" x2="140" y2="184" stroke-dasharray="4,2"/>
    <line x1="35" y1="188" x2="125" y2="188"/>
  </g>
  <ellipse cx="80" cy="180" rx="36" ry="5" fill="#f43f5e" opacity="0.25"/>

  <!-- Ring 2: Outer 6 Nodes -->
  <g class="ring-2">
    <circle cx="80" cy="100" r="65" fill="none" stroke="#166534" stroke-width="1" stroke-dasharray="3,5" opacity="0.7"/>
    <g transform="translate(139, 94)"><rect width="11" height="11" fill="#00ff41"/><rect x="1.5" y="1.5" width="8" height="8" fill="#000"/><rect x="3.5" y="3.5" width="4" height="4" fill="#00f0ff"/></g>
    <g transform="translate(107, 149)"><rect width="11" height="11" fill="#00ff41"/><rect x="1.5" y="1.5" width="8" height="8" fill="#000"/><rect x="3.5" y="3.5" width="4" height="4" fill="#fb923c"/></g>
    <g transform="translate(42, 149)"><rect width="11" height="11" fill="#00ff41"/><rect x="1.5" y="1.5" width="8" height="8" fill="#000"/><rect x="3.5" y="3.5" width="4" height="4" fill="#f43f5e"/></g>
    <g transform="translate(10, 94)"><rect width="11" height="11" fill="#00ff41"/><rect x="1.5" y="1.5" width="8" height="8" fill="#000"/><rect x="3.5" y="3.5" width="4" height="4" fill="#c084fc"/></g>
    <g transform="translate(42, 40)"><rect width="11" height="11" fill="#00ff41"/><rect x="1.5" y="1.5" width="8" height="8" fill="#000"/><rect x="3.5" y="3.5" width="4" height="4" fill="#fbbf24"/></g>
    <g transform="translate(107, 40)"><rect width="11" height="11" fill="#00ff41"/><rect x="1.5" y="1.5" width="8" height="8" fill="#000"/><rect x="3.5" y="3.5" width="4" height="4" fill="#00ff41"/></g>
  </g>

  <!-- Ring 1: Inner 4 Nodes -->
  <g class="ring-1">
    <circle cx="80" cy="100" r="40" fill="none" stroke="#00ff41" stroke-width="1" stroke-dasharray="2,4" opacity="0.9"/>
    <g transform="translate(115, 95)"><rect width="10" height="10" fill="#00ff41"/><rect x="1.5" y="1.5" width="7" height="7" fill="#000"/><rect x="3" y="3" width="4" height="4" fill="#00f0ff"/></g>
    <g transform="translate(75, 135)"><rect width="10" height="10" fill="#00ff41"/><rect x="1.5" y="1.5" width="7" height="7" fill="#000"/><rect x="3" y="3" width="4" height="4" fill="#fb923c"/></g>
    <g transform="translate(35, 95)"><rect width="10" height="10" fill="#00ff41"/><rect x="1.5" y="1.5" width="7" height="7" fill="#000"/><rect x="3" y="3" width="4" height="4" fill="#c084fc"/></g>
    <g transform="translate(75, 55)"><rect width="10" height="10" fill="#00ff41"/><rect x="1.5" y="1.5" width="7" height="7" fill="#000"/><rect x="3" y="3" width="4" height="4" fill="#fbbf24"/></g>
  </g>

  <!-- Official OMP Pi Logo Mascot Body -->
  <g class="pip-commander">
    <!-- Top Horizontal Crossbar (Pink -> Purple -> Cyan) -->
    <rect x="49" y="74" width="9" height="9" fill="#ff4071" stroke="#000" stroke-width="0.75"/>
    <rect x="58" y="74" width="9" height="9" fill="#f43f5e" stroke="#000" stroke-width="0.75"/>
    <rect x="67" y="74" width="9" height="9" fill="#c026d3" stroke="#000" stroke-width="0.75"/>
    <rect x="76" y="74" width="9" height="9" fill="#9333ea" stroke="#000" stroke-width="0.75"/>
    <rect x="85" y="74" width="9" height="9" fill="#6366f1" stroke="#000" stroke-width="0.75"/>
    <rect x="94" y="74" width="9" height="9" fill="#0ea5e9" stroke="#000" stroke-width="0.75"/>
    <rect x="103" y="74" width="9" height="9" fill="#00f0ff" stroke="#000" stroke-width="0.75"/>

    <!-- Left Leg -->
    <rect x="58" y="83" width="9" height="9" fill="#ec4899" stroke="#000" stroke-width="0.75"/>
    <rect x="58" y="92" width="9" height="9" fill="#a855f7" stroke="#000" stroke-width="0.75"/>
    <rect x="58" y="101" width="9" height="9" fill="#7e22ce" stroke="#000" stroke-width="0.75"/>
    <rect x="58" y="110" width="9" height="9" fill="url(#piHalftone)" stroke="#000" stroke-width="0.75"/>

    <!-- Right Leg -->
    <rect x="85" y="83" width="9" height="9" fill="#7c3aed" stroke="#000" stroke-width="0.75"/>
    <rect x="85" y="92" width="9" height="9" fill="#2563eb" stroke="#000" stroke-width="0.75"/>
    <rect x="85" y="101" width="9" height="9" fill="#0284c7" stroke="#000" stroke-width="0.75"/>
    <rect x="85" y="110" width="9" height="9" fill="#00f0ff" stroke="#000" stroke-width="0.75"/>

    <!-- Eyes -->
    <rect x="71" y="76" width="4" height="4" fill="#ffffff"/>
    <rect x="72" y="77" width="2" height="2" fill="#000000"/>
    <rect x="88" y="76" width="4" height="4" fill="#ffffff"/>
    <rect x="89" y="77" width="2" height="2" fill="#000000"/>
  </g>
</svg>
